<svg width="237" height="32" viewBox="0 0 237 32" fill="none" xmlns="http://www.w3.org/2000/svg">
<path d="M204.803 0V5.87323H226.079L204.803 27.1498V31.5824H209.014L230.29 10.3059V31.5824H236.164V0H204.803Z" fill="#FF6D39"/>
<path d="M0 29.1444V2.54867H10.4929C12.5014 2.54867 14.2156 2.90796 15.6354 3.62653C17.0639 4.33644 18.1504 5.34504 18.8949 6.65231C19.6481 7.95093 20.0247 9.47898 20.0247 11.2364C20.0247 13.0026 19.6438 14.522 18.8819 15.7946C18.1201 17.0586 17.0163 18.0282 15.5705 18.7035C14.1333 19.3788 12.3932 19.7164 10.35 19.7164H3.32447V15.1972H9.44097C10.5145 15.1972 11.4062 15.0501 12.1161 14.7557C12.826 14.4614 13.3541 14.0198 13.7004 13.4311C14.0554 12.8424 14.2329 12.1108 14.2329 11.2364C14.2329 10.3534 14.0554 9.60884 13.7004 9.00282C13.3541 8.39679 12.8217 7.93795 12.1031 7.62628C11.3932 7.30595 10.4972 7.14579 9.415 7.14579H5.62303V29.1444H0ZM14.3627 17.0413L20.9727 29.1444H14.7653L8.29818 17.0413H14.3627Z" fill="#58585A"/>
<path d="M23.9985 29.1444V2.54867H41.9195V7.18475H29.6215V13.522H40.9974V18.1581H29.6215V24.5083H41.9714V29.1444H23.9985Z" fill="#58585A"/>
<path d="M68.6353 2.54867V29.1444H63.7785L52.2078 12.4052H52.013V29.1444H46.39V2.54867H51.3247L62.8045 19.2749H63.0383V2.54867H68.6353Z" fill="#58585A"/>
<path d="M73.2812 29.1444V2.54867H91.2021V7.18475H78.9042V13.522H90.2801V18.1581H78.9042V24.5083H91.2541V29.1444H73.2812Z" fill="#58585A"/>
<path d="M110.1 10.1975C109.996 9.14999 109.551 8.33619 108.763 7.75614C107.975 7.17609 106.906 6.88606 105.555 6.88606C104.637 6.88606 103.863 7.01593 103.231 7.27565C102.599 7.52672 102.114 7.87735 101.776 8.32753C101.447 8.77772 101.283 9.28851 101.283 9.85991C101.265 10.3361 101.365 10.7516 101.581 11.1066C101.806 11.4615 102.114 11.7689 102.503 12.0286C102.893 12.2797 103.343 12.5004 103.854 12.6909C104.365 12.8727 104.91 13.0285 105.49 13.1584L107.88 13.7298C109.04 13.9895 110.105 14.3358 111.074 14.7687C112.044 15.2016 112.884 15.734 113.594 16.366C114.303 16.998 114.853 17.7425 115.243 18.5996C115.641 19.4567 115.845 20.4393 115.853 21.5475C115.845 23.1751 115.429 24.5863 114.606 25.781C113.793 26.9671 112.615 27.8891 111.074 28.5471C109.542 29.1964 107.694 29.521 105.529 29.521C103.382 29.521 101.512 29.192 99.9191 28.5341C98.3348 27.8761 97.0968 26.9021 96.205 25.6122C95.322 24.3136 94.8588 22.7076 94.8155 20.7943H100.257C100.317 21.686 100.573 22.4305 101.023 23.0279C101.482 23.6166 102.092 24.0625 102.854 24.3655C103.624 24.6598 104.495 24.807 105.464 24.807C106.417 24.807 107.243 24.6685 107.945 24.3915C108.654 24.1144 109.204 23.7292 109.594 23.2357C109.983 22.7422 110.178 22.1752 110.178 21.5345C110.178 20.9371 110.001 20.435 109.646 20.0281C109.299 19.6212 108.789 19.2749 108.113 18.9892C107.447 18.7035 106.629 18.4438 105.659 18.21L102.763 17.4828C100.521 16.9374 98.7503 16.0846 97.4517 14.9245C96.1531 13.7644 95.5081 12.2017 95.5168 10.2365C95.5081 8.62621 95.9367 7.21938 96.8024 6.01599C97.6768 4.8126 98.8759 3.87327 100.4 3.19798C101.923 2.5227 103.655 2.18506 105.594 2.18506C107.568 2.18506 109.291 2.5227 110.763 3.19798C112.243 3.87327 113.394 4.8126 114.217 6.01599C115.039 7.21938 115.464 8.61323 115.49 10.1975H110.1Z" fill="#58585A"/>
<path d="M123.612 29.1444H117.587L126.768 2.54867H134.014L143.183 29.1444H137.157L130.495 8.62622H130.287L123.612 29.1444ZM123.236 18.6905H137.469V23.0799H123.236V18.6905Z" fill="#58585A"/>
<path d="M168.629 2.54867V29.1444H163.772L152.202 12.4052H152.007V29.1444H146.384V2.54867H151.318L162.798 19.2749H163.032V2.54867H168.629Z" fill="#58585A"/>
<path d="M187.703 10.1975C187.599 9.14999 187.153 8.33619 186.365 7.75614C185.577 7.17609 184.508 6.88606 183.157 6.88606C182.24 6.88606 181.465 7.01593 180.833 7.27565C180.201 7.52672 179.716 7.87735 179.378 8.32753C179.049 8.77772 178.885 9.28851 178.885 9.85991C178.868 10.3361 178.967 10.7516 179.184 11.1066C179.409 11.4615 179.716 11.7689 180.106 12.0286C180.495 12.2797 180.945 12.5004 181.456 12.6909C181.967 12.8727 182.512 13.0285 183.092 13.1584L185.482 13.7298C186.642 13.9895 187.707 14.3358 188.677 14.7687C189.646 15.2016 190.486 15.734 191.196 16.366C191.906 16.998 192.456 17.7425 192.845 18.5996C193.243 19.4567 193.447 20.4393 193.455 21.5475C193.447 23.1751 193.031 24.5863 192.209 25.781C191.395 26.9671 190.218 27.8891 188.677 28.5471C187.144 29.1964 185.296 29.521 183.131 29.521C180.984 29.521 179.114 29.192 177.521 28.5341C175.937 27.8761 174.699 26.9021 173.807 25.6122C172.924 24.3136 172.461 22.7076 172.418 20.7943H177.859C177.92 21.686 178.175 22.4305 178.625 23.0279C179.084 23.6166 179.694 24.0625 180.456 24.3655C181.227 24.6598 182.097 24.807 183.067 24.807C184.019 24.807 184.846 24.6685 185.547 24.3915C186.257 24.1144 186.807 23.7292 187.196 23.2357C187.586 22.7422 187.781 22.1752 187.781 21.5345C187.781 20.9371 187.603 20.435 187.248 20.0281C186.902 19.6212 186.391 19.2749 185.716 18.9892C185.049 18.7035 184.231 18.4438 183.261 18.21L180.365 17.4828C178.123 16.9374 176.353 16.0846 175.054 14.9245C173.755 13.7644 173.11 12.2017 173.119 10.2365C173.11 8.62621 173.539 7.21938 174.405 6.01599C175.279 4.8126 176.478 3.87327 178.002 3.19798C179.526 2.5227 181.257 2.18506 183.196 2.18506C185.17 2.18506 186.893 2.5227 188.365 3.19798C189.845 3.87327 190.997 4.8126 191.819 6.01599C192.642 7.21938 193.066 8.61323 193.092 10.1975H187.703Z" fill="#58585A"/>
</svg>
