<svg width="25" height="25" viewBox="0 0 25 25" fill="none" xmlns="http://www.w3.org/2000/svg">
<path d="M13.5417 8.33333C14.3705 8.33333 15.1653 8.66257 15.7514 9.24862C16.3374 9.83468 16.6667 10.6295 16.6667 11.4583C16.6667 11.7346 16.7764 11.9996 16.9718 12.1949C17.1671 12.3903 17.4321 12.5 17.7083 12.5C17.9846 12.5 18.2496 12.3903 18.4449 12.1949C18.6403 11.9996 18.75 11.7346 18.75 11.4583C18.75 10.077 18.2013 8.75224 17.2245 7.77549C16.2478 6.79873 14.923 6.25 13.5417 6.25C13.2654 6.25 13.0004 6.35975 12.8051 6.5551C12.6097 6.75045 12.5 7.0154 12.5 7.29167C12.5 7.56793 12.6097 7.83289 12.8051 8.02824C13.0004 8.22359 13.2654 8.33333 13.5417 8.33333Z" fill="#FF6D39"/>
<path d="M13.5417 4.16659C15.4755 4.16659 17.3302 4.93481 18.6977 6.30227C20.0651 7.66972 20.8333 9.52438 20.8333 11.4583C20.8333 11.7345 20.9431 11.9995 21.1384 12.1948C21.3338 12.3902 21.5987 12.4999 21.875 12.4999C22.1513 12.4999 22.4162 12.3902 22.6116 12.1948C22.8069 11.9995 22.9167 11.7345 22.9167 11.4583C22.9167 8.97185 21.9289 6.58728 20.1708 4.82913C18.4126 3.07097 16.0281 2.08325 13.5417 2.08325C13.2654 2.08325 13.0004 2.193 12.8051 2.38835C12.6097 2.5837 12.5 2.84865 12.5 3.12492C12.5 3.40119 12.6097 3.66614 12.8051 3.86149C13.0004 4.05684 13.2654 4.16659 13.5417 4.16659Z" fill="#FF6D39"/>
<path d="M22.6564 16.5728C22.5991 16.4056 22.5002 16.2557 22.369 16.1373C22.2378 16.0188 22.0786 15.9357 21.9064 15.8958L15.6564 14.4687C15.4868 14.4302 15.3102 14.4348 15.1428 14.4821C14.9754 14.5295 14.8225 14.6179 14.6981 14.7395C14.5522 14.8749 14.5418 14.8853 13.8647 16.177C11.6181 15.1418 9.81786 13.3341 8.79183 11.0833C10.1147 10.4166 10.1252 10.4166 10.2606 10.2603C10.3822 10.1359 10.4706 9.98303 10.5179 9.81563C10.5652 9.64823 10.5699 9.47165 10.5314 9.302L9.10433 3.12492C9.06438 2.95273 8.98126 2.79353 8.86281 2.66233C8.74436 2.53112 8.59447 2.43221 8.42725 2.37492C8.18398 2.28803 7.93278 2.22523 7.67725 2.18742C7.41397 2.12637 7.1453 2.09148 6.87516 2.08325C5.60433 2.08325 4.38555 2.58809 3.48694 3.4867C2.58833 4.38531 2.0835 5.60409 2.0835 6.87492C2.08901 11.1277 3.78088 15.2048 6.78808 18.212C9.79528 21.2192 13.8723 22.9111 18.1252 22.9166C18.7544 22.9166 19.3775 22.7926 19.9589 22.5518C20.5402 22.311 21.0684 21.9581 21.5134 21.5131C21.9583 21.0682 22.3113 20.54 22.5521 19.9586C22.7929 19.3773 22.9168 18.7542 22.9168 18.1249C22.9172 17.8598 22.8963 17.5951 22.8543 17.3333C22.8106 17.0745 22.7443 16.8201 22.6564 16.5728ZM18.1252 20.8333C14.424 20.8305 10.8753 19.359 8.25818 16.7419C5.64108 14.1248 4.16959 10.5761 4.16683 6.87492C4.16957 6.15747 4.4558 5.47019 4.96311 4.96287C5.47043 4.45555 6.15771 4.16933 6.87516 4.16659H7.21891L8.3335 8.99992L7.771 9.29159C6.87516 9.76034 6.16683 10.1353 6.54183 10.9478C7.15248 12.6766 8.14055 14.2476 9.43426 15.5467C10.728 16.8458 12.2948 17.8404 14.021 18.4583C14.896 18.8124 15.2397 18.1562 15.7085 17.2499L16.0106 16.677L20.8335 17.7812V18.1249C20.8308 18.8424 20.5445 19.5297 20.0372 20.037C19.5299 20.5443 18.8426 20.8305 18.1252 20.8333Z" fill="#FF6D39"/>
</svg>
