<svg width="19" height="19" viewBox="0 0 19 19" fill="none" xmlns="http://www.w3.org/2000/svg">
<g clip-path="url(#clip0_107_13)">
<path d="M9.50203 19.0016C14.7485 19.0016 19.0016 14.7485 19.0016 9.50204C19.0016 4.25556 14.7485 0.00244141 9.50203 0.00244141C4.25555 0.00244141 0.00244141 4.25556 0.00244141 9.50204C0.00244141 14.7485 4.25555 19.0016 9.50203 19.0016Z" fill="white"/>
<path d="M18.4568 6.33228H12.6035C12.8578 8.36163 12.8593 10.5977 12.6084 12.6296H18.4693C18.8114 11.6493 18.9995 10.5966 18.9995 9.49983C18.9997 8.38863 18.8072 7.32303 18.4568 6.33228Z" fill="#2B479D"/>
<path d="M12.6043 6.33333H18.4574C18.4566 6.33032 18.4556 6.32779 18.4544 6.32506C17.2387 2.89686 14.1112 0.374605 10.3535 0.0397949C11.8078 0.83689 12.2326 3.36231 12.6043 6.33333Z" fill="#EFECEC"/>
<path d="M10.3535 18.9604C14.1179 18.625 17.2498 16.094 18.4608 12.6566C18.464 12.6475 18.4667 12.6385 18.47 12.6296H12.6091C12.2402 15.6167 11.8136 18.16 10.3535 18.9604Z" fill="#E63026"/>
<path d="M0 9.50008C0 10.597 0.188404 11.6496 0.530234 12.6298H13.0977C13.3488 10.5978 13.347 8.36187 13.093 6.33252H0.542869C0.192455 7.32331 0 8.38891 0 9.50008Z" fill="#3757A6"/>
<path d="M0.546465 6.32425C0.545583 6.32694 0.54466 6.32951 0.543457 6.33252H13.0937C12.7217 3.36146 11.8078 0.836083 10.3538 0.0389883C10.0725 0.0140791 9.78811 4.57184e-10 9.50043 4.57184e-10C5.36778 -4.0111e-05 1.85342 2.63933 0.546465 6.32425Z" fill="#EFEFEF"/>
<path d="M13.0972 12.6299H0.529785C0.532954 12.6387 0.535922 12.6477 0.538931 12.6569C1.84067 16.3512 5.36009 18.9999 9.49935 18.9999C9.78707 18.9999 10.0715 18.9858 10.3527 18.9606C11.8129 18.1603 12.7284 15.617 13.0972 12.6299Z" fill="#E73B36"/>
</g>
<defs>
<clipPath id="clip0_107_13">
<rect width="19" height="19" fill="white"/>
</clipPath>
</defs>
</svg>
