<svg width="22" height="19" viewBox="0 0 22 19" fill="none" xmlns="http://www.w3.org/2000/svg">
<path d="M1.54876 7.8408C7.38852 5.2965 11.2826 3.61915 13.231 2.80873C18.7942 0.494837 19.9501 0.0928885 20.7036 0.0794744C20.8693 0.0766967 21.2398 0.117765 21.4798 0.312516C21.6825 0.476959 21.7382 0.6991 21.7649 0.85501C21.7916 1.01092 21.8248 1.36609 21.7984 1.64361C21.4969 4.81116 20.1925 12.498 19.5289 16.0457C19.2481 17.5468 18.6951 18.0502 18.1599 18.0994C16.9966 18.2065 16.1132 17.3306 14.9865 16.5921C13.2234 15.4363 12.2274 14.7169 10.516 13.5891C8.53819 12.2858 9.82032 11.5694 10.9475 10.3988C11.2424 10.0924 16.368 5.43031 16.4672 5.00739C16.4796 4.95449 16.4911 4.75733 16.374 4.65322C16.2568 4.54911 16.084 4.58471 15.9592 4.61303C15.7824 4.65316 12.9658 6.5148 7.50955 10.1979C6.71008 10.7469 5.98595 11.0144 5.33715 11.0004C4.6219 10.9849 3.24605 10.596 2.22324 10.2635C0.968732 9.8557 -0.0283286 9.6401 0.058493 8.94754C0.103715 8.58681 0.600469 8.2179 1.54876 7.8408Z" fill="#58585A"/>
</svg>
